<svg height="512" viewBox="0 0 256 256" width="512" xmlns="http://www.w3.org/2000/svg"><g id="Layer_1"><g><path d="m224 112.086h-48v-80h43c2.761 0 5 2.239 5 5z" fill="#fc5d3d"/><path d="m208 114.586c-1.381 0-2.5-1.119-2.5-2.5v-64c0-1.381 1.119-2.5 2.5-2.5s2.5 1.119 2.5 2.5v64c0 1.381-1.119 2.5-2.5 2.5z" fill="#ffcbc3"/><path d="m248 213.086v22c0 2.761-2.239 5-5 5h-179v-11c0-2.761-2.239-5-5-5h-27v-27c0-2.761-2.239-5-5-5h-11v-179c0-2.761 2.239-5 5-5h22c2.761 0 5 2.239 5 5v195h195c2.761 0 5 2.239 5 5z" fill="#72c2e9"/><path d="m240 234.586h-5c-1.381 0-2.5-1.119-2.5-2.5s1.119-2.5 2.5-2.5h5c1.381 0 2.5 1.119 2.5 2.5s-1.119 2.5-2.5 2.5zm-15 0h-161c-1.381 0-2.5-1.119-2.5-2.5s1.119-2.5 2.5-2.5h161c1.381 0 2.5 1.119 2.5 2.5s-1.119 2.5-2.5 2.5z" fill="#c5e5fe"/><path d="m24 194.586c-1.381 0-2.5-1.119-2.5-2.5v-176c0-1.381 1.119-2.5 2.5-2.5s2.5 1.119 2.5 2.5v176c0 1.381-1.119 2.5-2.5 2.5z" fill="#c5e5fe"/><path d="m64 229.086v14c0 2.761-2.239 5-5 5h-46c-2.761 0-5-2.239-5-5v-46c0-2.761 2.239-5 5-5h14c2.761 0 5 2.239 5 5v27h27c2.761 0 5 2.239 5 5z" fill="#afafaf"/><path d="m176 112.086v-80h-107c-2.761 0-5 2.239-5 5v150c0 2.761 2.239 5 5 5 2.624 0 151 0 150 0 2.761 0 5-2.239 5-5v-75z" fill="#f0c020"/><path d="m208 178.586h-113c-1.381 0-2.5-1.119-2.5-2.5s1.119-2.5 2.5-2.5h110.5v-61.5c0-1.381 1.119-2.5 2.5-2.5s2.5 1.119 2.5 2.5v64c0 1.381-1.119 2.5-2.5 2.5zm-123 0h-5c-1.381 0-2.5-1.119-2.5-2.5s1.119-2.5 2.5-2.5h5c1.381 0 2.5 1.119 2.5 2.5s-1.119 2.5-2.5 2.5z" fill="#f8e5b0"/><path d="m56 242.586h-4c-1.381 0-2.5-1.119-2.5-2.5s1.119-2.5 2.5-2.5h4c1.381 0 2.5 1.119 2.5 2.5s-1.119 2.5-2.5 2.5zm-14 0h-26c-1.381 0-2.5-1.119-2.5-2.5v-40c0-1.381 1.119-2.5 2.5-2.5s2.5 1.119 2.5 2.5v37.5h23.5c1.381 0 2.5 1.119 2.5 2.5s-1.119 2.5-2.5 2.5z" fill="#efefef"/><g><path d="m69 194.586h49.29c1.37 0 2.5-1.12 2.5-2.5s-1.13-2.5-2.5-2.5h-16.255l75-75h40.93l-75 75h-4.675c-1.38 0-2.5 1.12-2.5 2.5s1.12 2.5 2.5 2.5h80.71c4.13 0 7.5-3.37 7.5-7.5 0-6.592 0-143.422 0-150 0-4.13-3.37-7.5-7.5-7.5-6.758 0-143.566 0-150 0-4.13 0-7.5 3.37-7.5 7.5v150c0 4.13 3.37 7.5 7.5 7.5zm152.5-7.5c0 1.38-1.12 2.5-2.5 2.5h-20.965l23.465-23.465zm0-28.035-30.535 30.535h-40.93l71.465-71.465zm0-49.465c-23.849 0-29.841 0-39.465 0l39.465-39.465zm-43-75h23.465l-23.465 23.465zm0 30.535 30.535-30.535h9.965c1.38 0 2.5 1.12 2.5 2.5v25.965l-43 43c0-15.441 0-25.346 0-40.93zm-112-28.035c0-1.38 1.12-2.5 2.5-2.5h36.965l-39.465 39.465zm0 44.035 46.535-46.535h40.93l-87.465 87.465zm0 48 94.535-94.535h12.465v28.465l-107 107zm0 48 107-107v40.93l-78.535 78.535h-25.965c-1.38 0-2.5-1.12-2.5-2.5z"/><circle cx="128.29" cy="192.086" r="2.5"/><circle cx="16" cy="132.656" r="2.5"/><path d="m243 205.586h-192.5v-192.5c0-4.13-3.37-7.5-7.5-7.5h-22c-4.13 0-7.5 3.37-7.5 7.5v109.57c0 1.38 1.12 2.5 2.5 2.5s2.5-1.12 2.5-2.5v-109.57c0-1.38 1.12-2.5 2.5-2.5h22c1.38 0 2.5 1.12 2.5 2.5v16.5h-5.5c-1.38 0-2.5 1.12-2.5 2.5s1.12 2.5 2.5 2.5h5.5v27h-5.5c-1.38 0-2.5 1.12-2.5 2.5s1.12 2.5 2.5 2.5h5.5v27h-5.5c-1.38 0-2.5 1.12-2.5 2.5s1.12 2.5 2.5 2.5h5.5v27h-5.5c-1.38 0-2.5 1.12-2.5 2.5s1.12 2.5 2.5 2.5h5.5v27h-5.5c-1.38 0-2.5 1.12-2.5 2.5s1.12 2.5 2.5 2.5h5.5v27h-5.5c-1.38 0-2.5 1.12-2.5 2.5s1.12 2.5 2.5 2.5h5.5v13.5c0 1.366 1.111 2.5 2.5 2.5h13.5v5.5c0 1.38 1.12 2.5 2.5 2.5s2.5-1.12 2.5-2.5v-5.5h27v5.5c0 1.38 1.12 2.5 2.5 2.5s2.5-1.12 2.5-2.5v-5.5h27v5.5c0 1.38 1.12 2.5 2.5 2.5s2.5-1.12 2.5-2.5v-5.5h27v5.5c0 1.38 1.12 2.5 2.5 2.5s2.5-1.12 2.5-2.5v-5.5h27v5.5c0 1.38 1.12 2.5 2.5 2.5s2.5-1.12 2.5-2.5v-5.5h27v5.5c0 1.38 1.12 2.5 2.5 2.5s2.5-1.12 2.5-2.5v-5.5h16.5c1.38 0 2.5 1.12 2.5 2.5v22c0 1.38-1.12 2.5-2.5 2.5h-176.5v-8.5c0-4.13-3.37-7.5-7.5-7.5h-24.5v-24.5c0-4.13-3.37-7.5-7.5-7.5h-8.5v-46.93c0-1.38-1.12-2.5-2.5-2.5s-2.5 1.12-2.5 2.5v46.93h-.5c-4.13 0-7.5 3.37-7.5 7.5v46c0 4.13 3.37 7.5 7.5 7.5h7.86c1.38 0 2.5-1.12 2.5-2.5s-1.12-2.5-2.5-2.5h-7.86c-1.38 0-2.5-1.12-2.5-2.5v-46c0-1.38 1.12-2.5 2.5-2.5h14c1.37 0 2.5 1.12 2.5 2.5v27c0 1.366 1.111 2.5 2.5 2.5h27c1.37 0 2.5 1.12 2.5 2.5v11 3c0 1.38-1.12 2.5-2.5 2.5h-18.14c-1.38 0-2.5 1.12-2.5 2.5s1.12 2.5 2.5 2.5h18.14c4.13 0 7.5-3.37 7.5-7.5v-.5h176.5c4.13 0 7.5-3.37 7.5-7.5v-22c0-4.13-3.37-7.5-7.5-7.5z"/><circle cx="30.86" cy="248.086" r="2.5"/></g></g></g></svg>