<svg id="color13123123" enable-background="new 0 0 24 24" height="120pt" viewBox="0 0 24 24" width="120pt" xmlns="http://www.w3.org/2000/svg"><g fill="#f44336"><path d="m8.25 16c-.268 0-.521-.144-.656-.386l-1.094-1.969v1.605c0 .414-.336.75-.75.75s-.75-.336-.75-.75v-4.5c0-.342.231-.641.562-.727.329-.084.677.063.844.362l1.094 1.97v-1.605c0-.414.336-.75.75-.75s.75.336.75.75v4.5c0 .342-.231.641-.562.727z"/><path d="m12.25 16h-.5c-.965 0-1.75-.785-1.75-1.75v-2.5c0-.965.785-1.75 1.75-1.75h.5c.965 0 1.75.785 1.75 1.75v2.5c0 .965-.785 1.75-1.75 1.75zm-.5-4.5c-.138 0-.25.112-.25.25v2.5c0 .138.112.25.25.25h.5c.138 0 .25-.112.25-.25v-2.5c0-.138-.112-.25-.25-.25z"/><path d="m17 16c-.414 0-.75-.336-.75-.75v-4.5c0-.414 1.5-.414 1.5 0v4.5c0 .414-.336.75-.75.75z"/><path d="m18.25 11.5h-2.5c-.414 0-.75-.336-.75-.75s.336-.75.75-.75h2.5c.414 0 .75.336.75.75s-.336.75-.75.75z"/><path d="m22.25 24h-1.5c-.414 0-.75-.336-.75-.75v-4.5c0-.414.336-.75.75-.75h1.5c.965 0 1.75.785 1.75 1.75v2.5c0 .965-.785 1.75-1.75 1.75zm-.75-1.5h.75c.138 0 .25-.112.25-.25v-2.5c0-.138-.112-.25-.25-.25h-.75z"/><path d="m.75 24c-.414 0-.75-.336-.75-.75v-3.5c0-.965.785-1.75 1.75-1.75h1.5c.414 0 .75.336.75.75s-.336.75-.75.75h-1.5c-.138 0-.25.112-.25.25v3.5c0 .414-.336.75-.75.75z"/><path d="m3.25 22h-2.5c-.414 0-.414-1.5 0-1.5h2.5c.414 0 .75.336.75.75s-.336.75-.75.75z"/><path d="m18.25 24c-.268 0-.521-.144-.656-.386l-1.094-1.97v1.605c0 .414-.336.75-.75.75s-.75-.335-.75-.749v-4.5c0-.342.231-.641.562-.727.329-.085.677.064.844.362l1.094 1.97v-1.605c0-.414.336-.75.75-.75s.75.336.75.75v4.5c0 .342-.231.641-.562.727z"/><path d="m7.25 24h-.5c-.965 0-1.75-.785-1.75-1.75v-2.5c0-.965.785-1.75 1.75-1.75h.5c.965 0 1.75.785 1.75 1.75v2.5c0 .965-.785 1.75-1.75 1.75zm-.5-4.5c-.138 0-.25.112-.25.25v2.5c0 .138.112.25.25.25h.5c.138 0 .25-.112.25-.25v-2.5c0-.138-.112-.25-.25-.25z"/><path d="m12.25 24h-.5c-.965 0-1.75-.785-1.75-1.75v-3.5c0-.414.336-.75.75-.75s.75.336.75.75v3.5c0 .138.112.25.25.25h.5c.138 0 .25-.112.25-.25v-3.5c0-.414.336-.75.75-.75s.75.336.75.75v3.5c0 .965-.785 1.75-1.75 1.75z"/></g><path d="m24 3v13.45c-.52-.28-1.11-.45-1.75-.45h-.25v-11h-20v11h-.25c-.64 0-1.23.17-1.75.45v-13.45c0-1.65 1.35-3 3-3h18c1.65 0 3 1.35 3 3z" fill="#607d8b"/><path d="m22 5v11h-1.25c-.44 0-.84.11-1.21.29.13-.32.21-.67.21-1.04v-2.83c.47-.42.75-1.01.75-1.67 0-1.24-1.01-2.25-2.25-2.25h-.56c-.22-.04-.44-.06-.69-.06s-.47.02-.68.06h-.57c-.42 0-.82.13-1.17.34-.64-.52-1.44-.84-2.33-.84h-.5c-.69 0-1.33.2-1.89.53-.45-.33-1.01-.53-1.61-.53-.45 0-.88.11-1.25.3-.41-.21-.88-.33-1.35-.3l-1.15.3c-.91.46-1.5 1.4-1.5 2.45v4.5c0 .26.05.51.12.75h-1.12v-11z" fill="#fff"/><path d="m8.25 10c-.414 0-.75.336-.75.75v1.605l-1.094-1.97c-.136-.242-.391-.385-.658-.385-.062 0-.124.008-.186.023-.331.086-.562.385-.562.727v4.5c0 .414.336.75.75.75s.75-.336.75-.75v-1.605l1.094 1.97c.135.241.388.385.656.385l.188-.023c.331-.086.562-.385.562-.727v-4.5c0-.414-.336-.75-.75-.75z" fill="#d43a2f"/><path d="m12 10h-.25c-.965 0-1.75.785-1.75 1.75v2.5c0 .965.785 1.75 1.75 1.75h.25v-1.5h-.25c-.138 0-.25-.112-.25-.25v-2.5c0-.138.112-.25.25-.25h.25z" fill="#d43a2f"/><path d="m3.25 18h-1.5c-.965 0-1.75.785-1.75 1.75v3.5c0 .414.336.75.75.75.414 0 .75-.336.75-.75v-1.25h-.75c-.414 0-.414-1.5 0-1.5h.75v-.75c0-.138.112-.25.25-.25h1.5c.414 0 .75-.336.75-.75s-.336-.75-.75-.75z" fill="#d43a2f"/><path d="m3.25 20.5h-1.75-.75c-.414 0-.414 1.5 0 1.5h.75 1.75c.414 0 .75-.336.75-.75s-.336-.75-.75-.75z" fill="#d43a2f"/><path d="m6.75 22.5c-.138 0-.25-.112-.25-.25v-2.5c0-.138.112-.25.25-.25h.5c.138 0 .25.112.25.25v2.5c0 .138-.112.25-.25.25zm.5-4.5h-.5c-.965 0-1.75.785-1.75 1.75v2.5c0 .965.785 1.75 1.75 1.75h.5c.965 0 1.75-.785 1.75-1.75v-2.5c0-.965-.785-1.75-1.75-1.75z" fill="#d43a2f"/><path d="m10.75 18c-.414 0-.75.336-.75.75v3.5c0 .965.785 1.75 1.75 1.75h.25v-1.5h-.25c-.138 0-.25-.112-.25-.25v-3.5c0-.414-.336-.75-.75-.75z" fill="#d43a2f"/><path d="m12 0h-9c-1.65 0-3 1.35-3 3v13.45c.52-.28 1.11-.45 1.75-.45h.25v-11h10z" fill="#546d79"/><path d="m12 5h-10v11h1.12c-.07-.24-.12-.49-.12-.75v-4.5c0-1.05.59-1.99 1.5-2.45l1.15-.3c.048-.003.097-.005.145-.005.421 0 .837.116 1.205.305.37-.19.8-.3 1.25-.3.6 0 1.16.2 1.61.53.56-.33 1.2-.53 1.89-.53h.25z" fill="#dedede"/></svg>