<svg id="Capa_1" enable-background="new 0 0 512.006 512.006" height="512" viewBox="0 0 512.006 512.006" width="512" xmlns="http://www.w3.org/2000/svg"><g><g><path d="m323.736 462.003h-135.46l-28.27 40h192z" fill="#c1b0b5"/><path d="m256.006 77.723c-.1.07-131.37 101.04-180 138.44v205.84h360v-205.84z" fill="#f3eff0"/><path d="m256.006 77.723c-.049.034-197.838 152.159-197.84 152.16-5.77 4.4-13.18 6.75-21.16 5.97-15.08-1.46-23.32-10.07-26.21-22.85-2.83-12.51 2.17-24.11 11.05-30.88l216-166c10.712-8.162 25.6-8.168 36.32 0 140.08 107.654-20.477-15.749 216 166 7.2 5.48 11.84 14.14 11.84 23.88 0 16.57-13.43 30-30 30-6.83 0-13.12-2.28-18.16-6.12-8.524-6.556-188.942-145.316-197.84-152.16z" fill="#ff7b79"/><path d="m436.006 382.163c24.14 1.92 43.24 21.08 45.53 45.13 12.16 6.86 20.47 19.75 20.47 34.71 0 22.09-17.91 40-40 40-22.39 0-62.7 0-110 0-16.57 0-30-13.43-30-30 0-13.04 8.403-24.116 20.18-28.22-1.172-23.438 17.608-41.78 39.82-41.78 3.2 0 6.27.47 9.25 1.18 10.592-14.941 27.812-22.431 44.75-21.02z" fill="#d8ec84"/><path d="m436.006 10.003v130.46l-.02.02-59.98-46.1v-84.38z" fill="#c1b0b5"/><path d="m296.006 216.003c23.68 0 40 20.07 40 43.84 0 32.88-32.55 54.65-80 96.16-47.45-41.51-80-63.28-80-96.16 0-23.77 16.32-43.84 40-43.84 30.4 0 40 35 40 35s9.6-35 40-35z" fill="#ff7b79"/><path d="m190.006 472.003c0 16.57-13.43 30-30 30-47.3 0-87.61 0-110 0-22.09 0-40-17.91-40-40 0-14.96 8.31-27.85 20.47-34.71 2.29-24.05 21.39-43.21 45.53-45.13 16.957-1.413 34.169 6.094 44.75 21.02 2.98-.71 6.05-1.18 9.25-1.18 22.101 0 40 17.919 40 40 0 .61-.15 1.18-.18 1.78 11.787 4.108 20.18 15.192 20.18 28.22z" fill="#d8ec84"/></g><g><path d="m216.006 206.003c-29.058 0-50 24.316-50 53.84 0 32.45 24.975 53.729 62.78 85.939 6.588 5.613 13.401 11.418 20.636 17.747 1.885 1.649 4.234 2.474 6.584 2.474s4.699-.824 6.584-2.474c7.235-6.329 14.048-12.134 20.636-17.747 37.805-32.21 62.78-53.489 62.78-85.939 0-29.527-20.947-53.84-50-53.84-19.864 0-32.463 11.342-40 22.295-7.536-10.953-20.136-22.295-40-22.295zm49.644 47.646c.076-.276 7.843-27.646 30.356-27.646 17.103 0 30 14.548 30 33.84 0 23.215-20.985 41.095-55.751 70.716-4.613 3.931-9.335 7.954-14.249 12.197-4.914-4.243-9.636-8.267-14.249-12.197-34.766-29.621-55.751-47.501-55.751-70.716 0-19.292 12.897-33.84 30-33.84 22.226 0 30.011 26.43 30.364 27.675 1.201 4.328 5.142 7.325 9.636 7.325 4.504 0 8.452-3.011 9.644-7.354z"/><circle cx="126.006" cy="102.003" r="10"/><path d="m447.786 237.837c7.012 5.343 15.387 8.166 24.22 8.166 22.056 0 40-17.944 40-40 0-12.599-5.753-24.203-15.746-31.809l-50.254-38.621v-125.57c0-5.522-4.477-10-10-10h-60c-5.523 0-10 4.478-10 10v64.089l-85.78-65.923c-7.012-5.343-15.387-8.166-24.22-8.166s-17.208 2.823-24.254 8.191l-76.139 58.515c-4.379 3.365-5.201 9.644-1.835 14.022 3.365 4.378 9.644 5.201 14.023 1.835l76.105-58.489c3.499-2.665 7.683-4.074 12.1-4.074s8.601 1.409 12.067 4.049l216.037 166.028c5.018 3.819 7.896 9.623 7.896 15.923 0 11.028-8.972 20-20 20-4.417 0-8.601-1.409-12.064-4.047-11.202-8.615-188.803-145.21-197.839-152.16-3.467-2.667-8.265-2.771-11.845-.256-.453.317-198.135 152.375-198.156 152.392-4.009 3.058-9.021 4.465-14.133 3.968-9.902-.959-15.274-5.616-17.42-15.104-1.798-7.949 1.021-15.889 7.39-20.744l68.529-52.665c4.379-3.365 5.201-9.644 1.835-14.022s-9.645-5.201-14.023-1.835l-68.496 52.64c-12.64 9.636-18.288 25.361-14.741 41.039 4.057 17.938 16.487 28.805 34.991 30.596 10.145.993 20.157-1.839 28.197-7.971l-.015-.019c.425-.313 1.005-.75 1.791-1.35v137.199c-22.881 5.488-40.575 24.105-44.8 47.678-13.192 9.328-21.2 24.482-21.2 40.66 0 27.57 22.43 50 50 50h412c27.57 0 50-22.43 50-50 0-16.178-8.008-31.332-21.2-40.66-4.226-23.583-21.932-42.206-44.8-47.682v-137.192zm-61.78-217.834h40v100.2l-40-30.741zm-226 472h-110c-16.542 0-30-13.458-30-30 0-10.685 5.895-20.647 15.384-26 2.849-1.607 4.731-4.506 5.042-7.763 1.955-20.533 18.954-36.237 39.575-36.237 12.877 0 25.062 6.342 32.592 16.963 2.36 3.328 6.505 4.89 10.475 3.944 2.563-.61 4.831-.907 6.933-.907 16.149 0 29.802 12.97 29.998 29.647-.852 6.012 2.362 10.123 6.532 11.576 7.74 2.696 13.47 10.014 13.47 18.776-.001 11.029-8.973 20.001-20.001 20.001zm172.216-54.644c-6.181 3.497-11.283 8.54-14.826 14.645h-122.783c-3.545-6.107-8.645-11.149-14.823-14.645-.168-1.801-.434-3.588-.794-5.365h154.021c-.36 1.776-.626 3.564-.795 5.365zm-137.584 54.644c3.413-5.887 5.368-12.72 5.368-20h112c0 7.28 1.956 14.113 5.368 20zm276.943-63.763c.31 3.257 2.193 6.155 5.042 7.763 9.489 5.353 15.384 15.315 15.384 26 0 16.542-13.458 30-30 30h-110c-11.028 0-20-8.972-20-20 0-8.772 5.74-16.084 13.47-18.776 4.206-1.465 7.379-5.599 6.532-11.576.196-16.635 13.81-29.647 29.998-29.647 2.102 0 4.37.297 6.933.907 3.967.944 8.115-.615 10.475-3.944 7.531-10.621 19.715-16.963 32.592-16.963 20.613-.001 37.617 15.685 39.574 36.236zm-45.575-55.922c-14.945 1.523-28.856 8.674-38.866 19.985-1.747-.2-3.451-.3-5.134-.3-15.777 0-30.598 7.54-39.979 20h-172.041c-9.377-12.457-24.201-20-39.98-20-1.684 0-3.388.1-5.134.3-10.01-11.312-23.92-18.462-38.866-19.985v-151.229c14.516-11.165 153.296-117.907 169.999-130.751l170.001 130.749z"/></g></g></svg>