<svg xmlns="http://www.w3.org/2000/svg"  viewBox="0 0 48 48" width="48px" height="48px"><path fill="#8bc34a" d="M37.27,14.2c-0.36,0.4-0.81,0.71-1.3,0.85c0.34,0.4,0.55,0.85,0.43,1.34	c-0.18,0.78-1.22,1.68-3.94,2.7C30.74,19.73,29,20,29,21c0,1.1,0.4,3.3,1,6c1.3,5.86-3.7,1.75-3.7,1.75s-9.36,5.39-9.98-3.43	c-0.01-0.02-0.01-0.04-0.01-0.06c-0.08-1.15-0.18-2.3-0.38-3.43l-0.97-5.38l-0.1-0.53L14,11.18L17,7l6.96-1.83l0.59-0.15l0.39,0.31	l2.37,1.91l0.09,0.07c0.02,0.02,0.05,0.04,0.08,0.06C28.41,8.1,29.84,9,31,9c5,0,5,0,6,1C38.44,11.44,38.18,13.16,37.27,14.2z"/><path fill="#388e3c" d="M26.3,28.75c0,0-9.36,5.39-9.98-3.43l2.18,2.18L24,22l5.5,5.5L30,27	C31.3,32.86,26.3,28.75,26.3,28.75z"/><path fill="#ffb74d" d="M40,27.7c0,0.44-0.03,0.87-0.07,1.3c-0.02,0.24-0.04,0.49-0.07,0.73c0,0.02-0.01,0.05-0.01,0.07	c-0.19,1.47-0.56,2.88-1.11,4.2h0.02C36.34,39.87,30.65,44,24,44c-0.25,0-0.5-0.01-0.74-0.03c-0.32-0.01-0.64-0.04-0.95-0.08	c-2.69-0.27-5.18-1.23-7.3-2.72c-0.31-0.21-0.6-0.43-0.89-0.67c-1.53-1.2-2.83-2.7-3.84-4.41c0,0,0,0,0-0.01	c-0.2-0.33-0.38-0.66-0.55-1.01C9.55,34.72,9.39,34.36,9.24,34h0.02c-0.63-1.52-1.04-3.16-1.19-4.88C8.03,28.65,8,28.18,8,27.7	c0-0.09,0-0.19,0.01-0.28l2.49,2.08l4-4l4,4L24,24l5.5,5.5l4-4l4,4l2.49-2.08C40,27.51,40,27.61,40,27.7z"/><path fill="#f57c00" d="M23,41.5c0,0.88-0.25,1.7-0.69,2.39c-2.69-0.27-5.18-1.23-7.3-2.72c-0.31-0.21-0.6-0.43-0.89-0.67	c0.45-2.01,2.23-3.5,4.38-3.5C20.99,37,23,39.01,23,41.5z"/><circle cx="18.5" cy="32.5" r="1.5" fill="#f57c00"/><circle cx="13" cy="33" r="1" fill="#f57c00"/><circle cx="27.5" cy="36.5" r="2.5" fill="#f57c00"/><path fill="#fff9c4" d="M28.71,12.71c0,0.45-0.51,0.77-1.22,0.95c-0.02,0-0.04,0.01-0.06,0.01	c-0.12,0.03-0.24,0.05-0.37,0.07c-0.14,0.03-0.27,0.04-0.41,0.05c-0.46,0.04-0.95,0.04-1.41-0.01c-0.13-0.01-0.26-0.03-0.39-0.06	c-0.13-0.02-0.26-0.04-0.37-0.08c-0.02,0-0.03-0.01-0.05-0.01c-0.66-0.17-1.14-0.48-1.14-0.92c0-1.49,1.22-2.71,2.71-2.71	S28.71,11.22,28.71,12.71z"/><path fill="#263238" d="M27.6,12.97c0,0.25-0.06,0.48-0.17,0.7c-0.12,0.03-0.24,0.05-0.37,0.07	c-0.14,0.03-0.27,0.04-0.41,0.05c-0.46,0.04-0.95,0.04-1.41-0.01c-0.13-0.01-0.26-0.03-0.39-0.06c-0.13-0.02-0.26-0.04-0.37-0.08	c-0.1-0.2-0.15-0.42-0.15-0.67c0-0.89,0.75-1.62,1.64-1.62C26.87,11.35,27.6,12.08,27.6,12.97z"/><path fill="#263238" d="M35.97,15.05c0.34,0.4,0.55,0.85,0.43,1.34c-0.13,0.03-0.27,0.05-0.4,0.08	c-0.77,0.14-1.55,0.26-2.34,0.34s-1.58,0.12-2.39,0.09c-0.8-0.04-1.62-0.12-2.43-0.43c-0.26-0.09-0.39-0.38-0.29-0.64	c0.09-0.24,0.35-0.37,0.59-0.31l0.02,0.01c0.65,0.16,1.38,0.17,2.1,0.12c0.72-0.05,1.45-0.17,2.17-0.33	c0.72-0.15,1.44-0.34,2.16-0.55c0.56-0.18,1.14-0.36,1.68-0.57C36.91,14.6,36.46,14.91,35.97,15.05z"/><path fill="#388e3c" d="M27.48,7.37l-0.24,0.44l-3.61,0.1l-2.11,3.95l-4.42,0.68l-0.6,2.96l-1.64,0.42L14,11.18L17,7	l6.96-1.83l0.59-0.15l0.39,0.31l2.37,1.91l0.09,0.07C27.42,7.33,27.45,7.35,27.48,7.37z"/><path fill="#ffb74d" d="M26.79,4.341l-1.055,1.972l-3.604,0.101l-2.109,3.943l-4.42,0.679L15,14l-2.901,0.74	c-0.679-4.42,1.055-8.098,3.879-10.097C18.084,3.153,22.847,2.231,26.79,4.341z"/></svg>