<?xml version="1.0" standalone="no"?>
<!DOCTYPE svg PUBLIC "-//W3C//DTD SVG 20010904//EN"
 "http://www.w3.org/TR/2001/REC-SVG-20010904/DTD/svg10.dtd">
<svg version="1.0" xmlns="http://www.w3.org/2000/svg"
 width="700.000000pt" height="700.000000pt" viewBox="0 0 700.000000 700.000000"
 preserveAspectRatio="xMidYMid meet">
<metadata>
Created by potrace 1.14, written by Peter Selinger 2001-2017
</metadata>
<g transform="translate(0.000000,700.000000) scale(0.100000,-0.100000)"
fill="#000000" stroke="none">
<path d="M3048 6545 c-2 -1 -34 -5 -73 -8 -171 -15 -393 -77 -530 -147 -297
-154 -544 -473 -644 -832 -39 -141 -59 -302 -56 -457 2 -100 13 -242 19 -248
1 -1 80 18 176 42 96 25 176 45 176 45 2 0 12 -54 20 -100 3 -14 18 -97 35
-185 16 -88 32 -171 34 -185 3 -14 7 -38 10 -55 5 -28 15 -83 30 -165 3 -19
17 -96 30 -170 14 -74 27 -151 30 -170 3 -19 8 -42 10 -50 5 -18 31 -195 39
-265 6 -51 10 -104 21 -235 13 -166 32 -281 60 -361 8 -23 15 -44 15 -48 0 -3
-75 70 -168 162 l-167 167 -291 -291 -291 -291 -119 98 c-65 54 -121 101 -124
104 -3 3 -31 27 -62 53 l-58 49 -1 -39 c-1 -58 2 -162 6 -181 1 -9 6 -53 9
-97 4 -44 9 -87 11 -95 2 -8 6 -28 9 -44 38 -221 119 -464 221 -669 61 -121
206 -352 257 -407 13 -14 39 -46 59 -70 56 -70 224 -231 324 -311 195 -157
429 -289 655 -370 132 -47 326 -96 414 -105 34 -4 63 -8 66 -10 13 -6 211 -18
315 -18 103 0 255 9 300 18 11 2 40 7 65 11 25 5 52 10 60 11 104 18 268 65
382 110 608 237 1096 720 1333 1319 47 119 108 318 119 389 4 21 8 41 10 45 2
3 7 31 11 61 4 30 8 57 10 60 3 6 11 77 20 185 4 51 7 156 6 188 -1 13 -34
-10 -123 -85 -68 -57 -131 -110 -141 -118 -11 -8 -35 -30 -56 -47 -20 -18 -38
-33 -41 -33 -3 0 -135 131 -295 290 l-290 290 -237 -237 c-198 -198 -238 -234
-238 -213 -1 46 -18 155 -45 280 -2 8 -13 60 -25 115 -11 55 -30 147 -41 205
-11 58 -22 116 -24 130 -6 29 -22 129 -30 180 -3 19 -8 76 -11 125 -12 166 10
184 367 306 446 151 669 290 705 439 13 53 6 89 -24 144 l-28 49 55 28 c70 35
134 97 174 169 18 30 33 59 34 65 1 5 8 33 16 60 7 28 12 64 11 80 -13 157
-47 229 -163 346 -125 125 -142 129 -586 134 -327 4 -364 7 -439 36 -147 57
-250 124 -502 330 l-81 66 67 124 67 124 -54 28 c-76 39 -197 82 -295 105 -81
19 -116 26 -208 38 -45 6 -297 14 -302 9z"/>
</g>
</svg>
